<svg width="30" height="30" viewBox="0 0 30 30" fill="none" xmlns="http://www.w3.org/2000/svg">
<path d="M19.3731 20C14.0413 20.0075 9.99438 15.9125 10 10.6269C10 10.2812 10.28 10 10.625 10H12.275C12.5844 10 12.8475 10.2275 12.8931 10.5337C13.0019 11.2682 13.2156 11.9832 13.5275 12.6569L13.5919 12.7956C13.6351 12.889 13.6444 12.9945 13.6182 13.094C13.5919 13.1935 13.5318 13.2807 13.4481 13.3406C12.9369 13.7056 12.7419 14.44 13.14 15.0125C13.6412 15.7333 14.2668 16.3591 14.9875 16.8606C15.5606 17.2581 16.295 17.0631 16.6594 16.5525C16.7192 16.4686 16.8065 16.4082 16.9061 16.3818C17.0058 16.3555 17.1115 16.3648 17.205 16.4081L17.3431 16.4719C18.0169 16.7844 18.7319 16.9981 19.4663 17.1069C19.7725 17.1525 20 17.4156 20 17.7256V19.375C20 19.4571 19.9838 19.5384 19.9524 19.6143C19.9209 19.6902 19.8748 19.7591 19.8167 19.8172C19.7586 19.8752 19.6896 19.9212 19.6137 19.9526C19.5378 19.984 19.4565 20.0001 19.3744 20H19.3731Z" fill="#F45100"/>
<circle cx="15" cy="15" r="14.5" stroke="#F45100"/>
</svg>
