<svg width="30" height="30" viewBox="0 0 30 30" fill="none" xmlns="http://www.w3.org/2000/svg">
<circle cx="15" cy="15" r="14.5" stroke="#F45100"/>
<path d="M15 9C13.6744 9.00147 12.4035 9.49863 11.4662 10.3824C10.5289 11.2662 10.0016 12.4644 10 13.7143C9.99842 14.7357 10.3523 15.7293 11.0073 16.5429C11.0073 16.5429 11.1436 16.7121 11.1659 16.7366L15 21L18.8359 16.7344C18.8559 16.7117 18.9927 16.5429 18.9927 16.5429L18.9932 16.5416C19.6479 15.7284 20.0015 14.7352 20 13.7143C19.9984 12.4644 19.4711 11.2662 18.5338 10.3824C17.5965 9.49863 16.3256 9.00147 15 9ZM15 15.4286C14.6404 15.4286 14.2889 15.328 13.9899 15.1397C13.6909 14.9513 13.4578 14.6836 13.3202 14.3703C13.1826 14.0571 13.1466 13.7124 13.2168 13.3798C13.2869 13.0473 13.4601 12.7418 13.7144 12.5021C13.9686 12.2624 14.2926 12.0991 14.6453 12.0329C14.998 11.9668 15.3636 12.0007 15.6958 12.1305C16.028 12.2602 16.312 12.48 16.5118 12.7619C16.7115 13.0438 16.8182 13.3752 16.8182 13.7143C16.8176 14.1688 16.6258 14.6045 16.285 14.9258C15.9441 15.2472 15.482 15.428 15 15.4286Z" fill="#F45100"/>
</svg>
